<mxfile host="Electron" modified="2023-07-05T18:56:41.435Z" agent="Mozilla/5.0 (Macintosh; Intel Mac OS X 10_15_7) AppleWebKit/537.36 (KHTML, like Gecko) draw.io/21.5.1 Chrome/112.0.5615.204 Electron/24.6.0 Safari/537.36" etag="8JH3OrhOIQG7Sk3Q343L" version="21.5.1" type="device">
  <diagram name="Page-1" id="ouslWT2YGiyZ6aAVi6Vt">
    <mxGraphModel dx="1114" dy="999" grid="1" gridSize="10" guides="1" tooltips="1" connect="1" arrows="1" fold="1" page="1" pageScale="1" pageWidth="827" pageHeight="1169" math="0" shadow="0">
      <root>
        <mxCell id="0" />
        <mxCell id="1" parent="0" />
        <mxCell id="QltpB-vtBqDGgRTZ4lIh-1" value="" style="whiteSpace=wrap;html=1;aspect=fixed;" vertex="1" parent="1">
          <mxGeometry x="440" y="270" width="80" height="80" as="geometry" />
        </mxCell>
        <mxCell id="QltpB-vtBqDGgRTZ4lIh-2" value="" style="ellipse;whiteSpace=wrap;html=1;aspect=fixed;" vertex="1" parent="1">
          <mxGeometry x="300" y="260" width="80" height="80" as="geometry" />
        </mxCell>
        <mxCell id="QltpB-vtBqDGgRTZ4lIh-3" value="" style="rhombus;whiteSpace=wrap;html=1;" vertex="1" parent="1">
          <mxGeometry x="360" y="160" width="80" height="80" as="geometry" />
        </mxCell>
      </root>
    </mxGraphModel>
  </diagram>
</mxfile>
